# Blender v2.60 (sub 0) OBJ File: 'ship.blend'
# www.blender.org
o Plane_Plane.001
v -0.410182 0.000000 1.310752
v 0.410182 0.000000 1.310752
v -1.000000 0.000000 -0.994451
v 1.000000 0.000000 -0.994451
v -0.289690 0.000000 2.510597
v 0.289690 0.000000 2.510597
v 0.000000 0.000000 1.310752
v 0.000000 0.000000 -0.994451
v 0.000000 0.000000 3.002611
v -0.650404 0.000000 0.760232
v 0.650404 0.000000 0.760232
v 0.000000 0.000000 0.310752
v -1.972540 0.000000 -0.773526
v 1.972540 0.000000 -0.773526
v -1.972540 0.000000 -0.995657
v 1.972540 0.000000 -0.995657
v -0.118984 0.000000 1.310752
v 0.118984 0.000000 1.310752
v -0.252163 0.000000 -0.994451
v 0.252163 0.000000 -0.994451
v -0.118984 0.000000 2.939967
v 0.118984 0.000000 2.939967
v -0.224418 0.000000 0.310752
v 0.224418 0.000000 0.310752
v -0.433508 0.000000 1.132236
v 0.433508 0.000000 1.132236
v 0.000000 0.000000 0.494085
v -0.224418 0.000000 0.494085
v 0.224418 0.000000 0.494085
v -1.486270 0.000000 -0.995054
v 1.486270 0.000000 -0.995054
v -1.855288 0.000000 -0.164798
v 1.855288 0.000000 -0.164798
v 1.855288 0.181135 -0.164798
v -1.855288 0.181135 -0.164798
v 1.486270 0.181135 -0.995054
v -1.486270 0.181135 -0.995054
v 0.224418 0.423483 0.494085
v -0.224418 0.423483 0.494085
v 0.000000 0.423483 0.494085
v 0.291353 0.423483 1.161505
v -0.291353 0.423483 1.161505
v 0.224418 0.423483 0.310752
v -0.224418 0.423483 0.310752
v 0.076296 0.173038 2.939967
v -0.076296 0.173038 2.939967
v 0.252163 0.423483 -0.994451
v -0.252163 0.423483 -0.994451
v 0.118984 0.423483 1.310752
v -0.118984 0.423483 1.310752
v 1.972540 0.181135 -0.995657
v -1.972540 0.181135 -0.995657
v 1.972540 0.181135 -0.773526
v -1.972540 0.181135 -0.773526
v 0.000000 0.423483 0.310752
v 0.650404 0.181135 0.760232
v -0.650404 0.181135 0.760232
v 0.000000 0.173038 3.002611
v 0.000000 0.423483 -0.994451
v 0.000000 0.423483 1.310752
v 0.203640 0.249928 2.510597
v -0.203640 0.249928 2.510597
v 1.000000 0.181135 -0.994451
v -1.000000 0.181135 -0.994451
v 0.275676 0.423483 1.281482
v -0.275676 0.423483 1.281482
v -0.396026 0.000000 1.550721
v -0.381869 0.000000 1.790690
v -0.367713 0.000000 2.030659
v -0.353556 0.000000 2.270628
v 0.396026 0.000000 1.550721
v 0.381869 0.000000 1.790690
v 0.367713 0.000000 2.030659
v 0.353556 0.000000 2.270628
v 0.000000 0.000000 1.649124
v 0.000000 0.000000 1.987495
v 0.000000 0.000000 2.325867
v 0.000000 0.000000 2.664239
v -0.118984 0.000000 1.636595
v -0.118984 0.000000 1.962438
v -0.118984 0.000000 2.288281
v -0.118984 0.000000 2.614124
v 0.118984 0.000000 1.636595
v 0.118984 0.000000 1.962438
v 0.118984 0.000000 2.288281
v 0.118984 0.000000 2.614124
v 0.218047 0.284639 2.264774
v 0.232454 0.319350 2.018951
v 0.246861 0.354061 1.773128
v 0.261269 0.388772 1.527305
v -0.218047 0.284639 2.264774
v -0.232454 0.319350 2.018951
v -0.246861 0.354061 1.773128
v -0.261269 0.388772 1.527305
v -0.118984 0.284639 2.614124
v -0.118984 0.424426 2.288281
v -0.118984 0.410361 1.962438
v -0.118984 0.411304 1.636595
v 0.000000 0.284639 2.664239
v 0.000000 0.424406 2.325867
v 0.000000 0.423473 1.987495
v 0.000000 0.424416 1.649124
v 0.118984 0.284639 2.614124
v 0.118984 0.424426 2.288281
v 0.118984 0.410361 1.962438
v 0.118984 0.411304 1.636595
vn 0.000000 1.000000 0.000000
vn -0.981950 0.000000 -0.189141
vn 0.981950 0.000000 -0.189141
vn -0.608964 0.000000 -0.793198
vn 0.608964 0.000000 -0.793198
vn 0.001240 0.000000 0.999999
vn -0.001240 0.000000 0.999999
vn -0.815071 -0.164747 -0.555444
vn 0.815071 -0.164747 -0.555444
vn -0.943323 -0.308137 -0.123258
vn 0.943323 -0.308137 -0.123258
vn -0.538800 -0.066461 -0.839808
vn 0.538800 -0.066461 -0.839808
vn -0.900658 -0.274133 -0.337144
vn 0.900658 -0.274133 -0.337144
vn 0.000000 0.000000 1.000000
vn -1.000000 0.000000 0.000001
vn 1.000000 0.000000 0.000001
vn -0.000000 -1.000000 0.000000
vn 0.366441 -0.929343 -0.045189
vn -0.366441 -0.929343 -0.045189
vn 0.513018 -0.857429 0.040363
vn -0.513018 -0.857429 0.040363
vn -0.944762 -0.318268 -0.078291
vn -0.935539 -0.344138 -0.079597
vn -0.923771 -0.374268 -0.081058
vn -0.908477 -0.409673 -0.082689
vn -0.909107 -0.378693 -0.173539
vn 0.909107 -0.378693 -0.173539
vn 0.908477 -0.409673 -0.082689
vn 0.923771 -0.374268 -0.081058
vn 0.935539 -0.344138 -0.079597
vn 0.944762 -0.318268 -0.078291
vn 0.186907 -0.927517 -0.323695
vn 0.141450 -0.912425 -0.384020
vn 0.049001 -0.998544 0.022548
vn 0.109978 -0.993930 -0.002822
vn 0.055896 -0.998294 -0.016902
vn -0.055896 -0.998294 -0.016902
vn -0.109978 -0.993930 -0.002822
vn -0.049001 -0.998544 0.022548
vn -0.141450 -0.912425 -0.384020
vn -0.186907 -0.927517 -0.323695
vn 0.615131 -0.746868 -0.252590
vn 0.816027 -0.546770 -0.187464
vn 0.611665 -0.789896 -0.043942
vn 0.347102 -0.935425 -0.067088
vn 0.113566 -0.989968 -0.084062
vn -0.113566 -0.989968 -0.084062
vn -0.347102 -0.935425 -0.067088
vn -0.611665 -0.789896 -0.043942
vn -0.816027 -0.546770 -0.187464
vn -0.615131 -0.746868 -0.252590
usemtl 
s off
f 8//1 19//1 23//1
f 8//1 23//1 12//1
f 24//1 20//1 8//1
f 24//1 8//1 12//1
f 19//1 3//1 10//1
f 19//1 10//1 23//1
f 11//1 4//1 20//1
f 11//1 20//1 24//1
f 23//1 28//1 27//1
f 23//1 27//1 12//1
f 27//1 29//1 24//1
f 27//1 24//1 12//1
f 28//1 17//1 7//1
f 28//1 7//1 27//1
f 7//1 18//1 29//1
f 7//1 29//1 27//1
f 10//1 25//1 28//1
f 10//1 28//1 23//1
f 29//1 26//1 11//1
f 29//1 11//1 24//1
f 25//1 1//1 17//1
f 25//1 17//1 28//1
f 18//1 2//1 26//1
f 18//1 26//1 29//1
f 3//1 30//1 32//1
f 3//1 32//1 10//1
f 33//1 31//1 4//1
f 33//1 4//1 11//1
f 30//1 15//1 13//1
f 30//1 13//1 32//1
f 14//1 16//1 31//1
f 14//1 31//1 33//1
f 14//2 33//2 34//2
f 14//2 34//2 53//2
f 32//3 13//3 54//3
f 32//3 54//3 35//3
f 33//4 11//4 56//4
f 33//4 56//4 34//4
f 10//5 32//5 35//5
f 10//5 35//5 57//5
f 31//6 16//6 51//6
f 31//6 51//6 36//6
f 15//7 30//7 37//7
f 15//7 37//7 52//7
f 4//6 31//6 36//6
f 4//6 36//6 63//6
f 30//7 3//7 64//7
f 30//7 64//7 37//7
f 11//8 26//8 41//8
f 11//8 41//8 56//8
f 25//9 10//9 57//9
f 25//9 57//9 42//9
f 26//10 2//10 65//10
f 26//10 65//10 41//10
f 1//11 25//11 42//11
f 1//11 42//11 66//11
f 22//12 9//12 58//12
f 22//12 58//12 45//12
f 9//13 21//13 46//13
f 9//13 46//13 58//13
f 6//14 22//14 45//14
f 6//14 45//14 61//14
f 21//15 5//15 62//15
f 21//15 62//15 46//15
f 8//16 20//16 47//16
f 8//16 47//16 59//16
f 19//16 8//16 59//16
f 19//16 59//16 48//16
f 20//16 4//16 63//16
f 20//16 63//16 47//16
f 3//16 19//16 48//16
f 3//16 48//16 64//16
f 16//17 14//17 53//17
f 16//17 53//17 51//17
f 13//18 15//18 52//18
f 13//18 52//18 54//18
f 44//19 48//19 59//19
f 44//19 59//19 55//19
f 59//19 47//19 43//19
f 59//19 43//19 55//19
f 57//20 64//20 48//20
f 57//20 48//20 44//20
f 47//21 63//21 56//21
f 47//21 56//21 43//21
f 40//19 39//19 44//19
f 40//19 44//19 55//19
f 43//19 38//19 40//19
f 43//19 40//19 55//19
f 60//19 50//19 39//19
f 60//19 39//19 40//19
f 38//19 49//19 60//19
f 38//19 60//19 40//19
f 39//22 42//22 57//22
f 39//22 57//22 44//22
f 56//23 41//23 38//23
f 56//23 38//23 43//23
f 50//19 66//19 42//19
f 50//19 42//19 39//19
f 41//19 65//19 49//19
f 41//19 49//19 38//19
f 35//19 37//19 64//19
f 35//19 64//19 57//19
f 63//19 36//19 34//19
f 63//19 34//19 56//19
f 54//19 52//19 37//19
f 54//19 37//19 35//19
f 36//19 51//19 53//19
f 36//19 53//19 34//19
f 17//1 79//1 75//1
f 17//1 75//1 7//1
f 79//1 80//1 76//1
f 79//1 76//1 75//1
f 80//1 81//1 77//1
f 80//1 77//1 76//1
f 81//1 82//1 78//1
f 81//1 78//1 77//1
f 82//1 21//1 9//1
f 82//1 9//1 78//1
f 22//1 86//1 78//1
f 22//1 78//1 9//1
f 86//1 85//1 77//1
f 86//1 77//1 78//1
f 85//1 84//1 76//1
f 85//1 76//1 77//1
f 84//1 83//1 75//1
f 84//1 75//1 76//1
f 83//1 18//1 7//1
f 83//1 7//1 75//1
f 1//1 67//1 79//1
f 1//1 79//1 17//1
f 67//1 68//1 80//1
f 67//1 80//1 79//1
f 68//1 69//1 81//1
f 68//1 81//1 80//1
f 69//1 70//1 82//1
f 69//1 82//1 81//1
f 70//1 5//1 21//1
f 70//1 21//1 82//1
f 6//1 74//1 86//1
f 6//1 86//1 22//1
f 74//1 73//1 85//1
f 74//1 85//1 86//1
f 73//1 72//1 84//1
f 73//1 84//1 85//1
f 72//1 71//1 83//1
f 72//1 83//1 84//1
f 71//1 2//1 18//1
f 71//1 18//1 83//1
f 2//24 71//24 90//24
f 2//24 90//24 65//24
f 71//25 72//25 89//25
f 71//25 89//25 90//25
f 72//26 73//26 88//26
f 72//26 88//26 89//26
f 73//27 74//27 87//27
f 73//27 87//27 88//27
f 74//28 6//28 61//28
f 74//28 61//28 87//28
f 5//29 70//29 91//29
f 5//29 91//29 62//29
f 70//30 69//30 92//30
f 70//30 92//30 91//30
f 69//31 68//31 93//31
f 69//31 93//31 92//31
f 68//32 67//32 94//32
f 68//32 94//32 93//32
f 67//33 1//33 66//33
f 67//33 66//33 94//33
f 46//34 95//34 99//34
f 46//34 99//34 58//34
f 95//35 96//35 100//35
f 95//35 100//35 99//35
f 96//36 97//36 101//36
f 96//36 101//36 100//36
f 97//37 98//37 102//37
f 97//37 102//37 101//37
f 98//38 50//38 60//38
f 98//38 60//38 102//38
f 49//39 106//39 102//39
f 49//39 102//39 60//39
f 106//40 105//40 101//40
f 106//40 101//40 102//40
f 105//41 104//41 100//41
f 105//41 100//41 101//41
f 104//42 103//42 99//42
f 104//42 99//42 100//42
f 103//43 45//43 58//43
f 103//43 58//43 99//43
f 62//44 91//44 95//44
f 62//44 95//44 46//44
f 91//45 92//45 96//45
f 91//45 96//45 95//45
f 92//46 93//46 97//46
f 92//46 97//46 96//46
f 93//47 94//47 98//47
f 93//47 98//47 97//47
f 94//48 66//48 50//48
f 94//48 50//48 98//48
f 65//49 90//49 106//49
f 65//49 106//49 49//49
f 90//50 89//50 105//50
f 90//50 105//50 106//50
f 89//51 88//51 104//51
f 89//51 104//51 105//51
f 88//52 87//52 103//52
f 88//52 103//52 104//52
f 87//53 61//53 45//53
f 87//53 45//53 103//53
o Cube.002_dupli
v -0.005000 0.000000 0.005000
v 0.005000 0.000000 0.005000
v 0.005000 0.000000 -0.005000
v -0.005000 0.000000 -0.005000
usemtl 
s off
f 107//1 108//1 109//1
f 107//1 109//1 110//1
